<svg width="240" height="170" viewBox="0 0 240 170" fill="none" xmlns="http://www.w3.org/2000/svg">
<path d="M203.437 121.523H186.961C185.836 121.523 184.781 121.872 184.078 122.486C182.437 123.897 180.68 125.259 178.828 126.554C171.255 131.923 162.285 136.202 152.414 139.154C142.187 142.214 131.195 143.784 120.094 143.77C108.867 143.77 97.9922 142.209 87.7734 139.154C77.9022 136.202 68.9322 131.923 61.3594 126.554C53.773 121.202 47.7238 114.86 43.5469 107.877C39.2109 100.639 37.0312 92.9522 37.0312 85C37.0312 77.0479 39.2344 69.3613 43.5469 62.1231C47.7187 55.1338 53.7187 48.8418 61.3594 43.4463C69 38.0508 77.8828 33.8008 87.7734 30.8457C97.9922 27.791 108.867 26.2305 120.094 26.2305C131.32 26.2305 142.195 27.7744 152.414 30.8457C162.305 33.8008 171.187 38.0508 178.828 43.4463C180.68 44.7578 182.414 46.1191 184.078 47.5137C184.781 48.1279 185.859 48.4766 186.961 48.4766H203.437C204.914 48.4766 205.828 47.3145 205.008 46.4346C187.031 26.6455 155.578 13.5469 119.836 13.6133C63.6797 13.7129 18.6562 46.0029 19.2187 85.7305C19.7812 124.827 64.7344 156.387 120.094 156.387C155.742 156.387 187.055 143.305 205.008 123.565C205.805 122.686 204.914 121.523 203.437 121.523ZM224.273 83.9541L191.016 65.3604C189.773 64.6631 187.969 65.2939 187.969 66.4063V79.0234H114.375C113.344 79.0234 112.5 79.6211 112.5 80.3516V89.6484C112.5 90.3789 113.344 90.9766 114.375 90.9766H187.969V103.594C187.969 104.706 189.797 105.337 191.016 104.64L224.273 86.0459C224.498 85.9217 224.679 85.7629 224.803 85.5817C224.928 85.4005 224.993 85.2016 224.993 85C224.993 84.7984 224.928 84.5995 224.803 84.4183C224.679 84.2371 224.498 84.0783 224.273 83.9541V83.9541Z" fill="black"/>
</svg>
