<svg width="176" height="134" viewBox="0 0 176 134" fill="none" xmlns="http://www.w3.org/2000/svg">
<g clip-path="url(#clip0)">
<path d="M87.8488 52.4276V132.773C87.8488 133.431 88.4593 133.988 89.177 133.988H174.509C175.227 133.988 175.827 133.431 175.827 132.773V83.6601V52.4276C175.843 52.1272 175.717 51.8323 175.472 51.5964C175.472 51.5964 175.447 51.5839 175.436 51.5943C175.33 51.4814 175.19 51.3892 175.028 51.3252C174.866 51.2612 174.687 51.2271 174.504 51.2258H89.1715C88.4593 51.2258 87.8488 51.7849 87.8488 52.4465" fill="#7167AD"/>
<path d="M0 70.6267V133.056C0 133.569 0.572 134 1.243 134H80.7593C81.0851 133.996 81.3959 133.895 81.6248 133.719C81.8537 133.542 81.9823 133.304 81.983 133.056V94.9037V70.6267C81.9882 70.5076 81.9608 70.3889 81.9025 70.2783C81.8443 70.1676 81.7565 70.0674 81.6447 69.9839L81.6227 69.9651L81.576 69.9399C81.4707 69.8554 81.3435 69.7885 81.2024 69.7435C81.0613 69.6984 80.9095 69.6762 80.7565 69.6782H1.24025C0.912584 69.6836 0.600384 69.7854 0.369148 69.9622C0.137913 70.1391 0.00561143 70.3772 0 70.6267" fill="#7167AD"/>
<path d="M11.3987 88.9467H22.1842C22.275 88.9467 22.3547 88.8734 22.3547 88.8002V82.8916V79.5018C22.3558 79.4843 22.3523 79.4667 22.3442 79.4502C22.3361 79.4337 22.3237 79.4187 22.3078 79.4059C22.2918 79.3932 22.2727 79.3831 22.2514 79.3762C22.2302 79.3693 22.2073 79.3657 22.1842 79.3657H11.3987C11.3756 79.3656 11.3527 79.3691 11.3315 79.3759C11.3102 79.3828 11.291 79.3928 11.275 79.4055V79.4139C11.253 79.4495 11.2255 79.4704 11.2255 79.4704V88.8002C11.2255 88.8734 11.3025 88.9467 11.3987 88.9467" fill="#6C888C"/>
<path d="M11.3987 104.591H22.1842C22.275 104.591 22.3547 104.52 22.3547 104.447V98.5384V95.1507C22.3555 95.1332 22.3516 95.1158 22.3434 95.0995C22.3352 95.0831 22.3228 95.0682 22.3069 95.0555C22.2911 95.0428 22.272 95.0327 22.251 95.0257C22.2299 95.0187 22.2072 95.0149 22.1842 95.0146H11.3987C11.3754 95.0146 11.3523 95.0183 11.3309 95.0255C11.3096 95.0327 11.2905 95.0433 11.275 95.0565V95.067C11.253 95.0984 11.2255 95.1214 11.2255 95.1214V104.453C11.2255 104.52 11.3025 104.591 11.3987 104.591" fill="#6C888C"/>
<path d="M29.4112 88.9467H40.205C40.2902 88.9467 40.37 88.8734 40.37 88.8002V82.8916V79.5018C40.37 79.4202 40.2902 79.3657 40.205 79.3657H29.4112C29.3656 79.3666 29.3223 79.3808 29.2902 79.4055V79.4139C29.2682 79.4495 29.2462 79.4704 29.2462 79.4704V88.8002C29.2462 88.8734 29.315 88.9467 29.4112 88.9467" fill="#6C888C"/>
<path d="M29.4112 104.591H40.205C40.2902 104.591 40.37 104.52 40.37 104.447V98.5384V95.1507C40.37 95.0712 40.2902 95.0146 40.205 95.0146H29.4112C29.3883 95.0149 29.3658 95.0187 29.3449 95.0259C29.3241 95.0331 29.3055 95.0435 29.2902 95.0565V95.067C29.2682 95.0984 29.2462 95.1214 29.2462 95.1214V104.453C29.2462 104.52 29.315 104.591 29.4112 104.591" fill="#6C888C"/>
<path d="M142.249 72.6491H153.043C153.128 72.6491 153.214 72.5759 153.214 72.5026V66.5961V63.2084C153.214 63.1268 153.131 63.066 153.043 63.066H142.249C142.203 63.066 142.159 63.0828 142.159 63.0828L142.156 63.1205C142.131 63.1498 142.109 63.1728 142.109 63.2105V72.5047C142.109 72.5759 142.175 72.6491 142.274 72.6491" fill="#6C888C"/>
<path d="M142.249 88.2934H153.043C153.128 88.2934 153.213 88.2201 153.213 88.1469V82.2383V78.8485C153.214 78.8309 153.21 78.8134 153.202 78.7969C153.194 78.7804 153.182 78.7654 153.166 78.7525C153.15 78.7397 153.131 78.7294 153.11 78.7221C153.089 78.7149 153.066 78.7109 153.043 78.7103H142.249C142.203 78.7103 142.159 78.7271 142.159 78.7271L142.156 78.7627C142.131 78.7983 142.109 78.8171 142.109 78.8506V88.149C142.109 88.2201 142.175 88.2934 142.274 88.2934" fill="#6C888C"/>
<path d="M160.27 72.6491H171.061C171.143 72.6491 171.231 72.5759 171.231 72.5026V66.5961V63.2084C171.231 63.1268 171.152 63.066 171.061 63.066H160.27C160.27 63.066 160.176 63.0828 160.146 63.11V63.1184C160.146 63.1184 160.102 63.1707 160.102 63.2084V72.5026C160.108 72.5759 160.176 72.6491 160.27 72.6491Z" fill="#6C888C"/>
<path d="M160.27 88.2934H171.061C171.143 88.2934 171.231 88.2201 171.231 88.1469V82.2383V78.8485C171.231 78.7669 171.152 78.7103 171.061 78.7103H160.27C160.27 78.7103 160.176 78.7271 160.146 78.7543V78.7627C160.146 78.7627 160.102 78.8171 160.102 78.8506V88.149C160.108 88.2201 160.176 88.2934 160.27 88.2934Z" fill="#6C888C"/>
<path d="M142.249 101.779H153.043C153.128 101.779 153.213 101.708 153.213 101.635V95.7285V92.3387C153.214 92.3212 153.21 92.3038 153.202 92.2875C153.194 92.2711 153.182 92.2562 153.166 92.2435C153.15 92.2308 153.131 92.2207 153.11 92.2137C153.089 92.2067 153.066 92.2029 153.043 92.2026H142.249C142.226 92.2027 142.204 92.2067 142.183 92.2143C142.163 92.2219 142.145 92.233 142.131 92.2466V92.255C142.106 92.2885 142.084 92.3115 142.084 92.3408V101.639C142.084 101.708 142.15 101.779 142.249 101.779Z" fill="#6C888C"/>
<path d="M142.249 117.418H153.043C153.128 117.418 153.213 117.344 153.213 117.275V111.367V107.977C153.214 107.959 153.21 107.942 153.202 107.926C153.194 107.91 153.181 107.895 153.166 107.882C153.15 107.87 153.131 107.86 153.11 107.853C153.088 107.846 153.066 107.843 153.043 107.843H142.249C142.227 107.843 142.205 107.847 142.185 107.854C142.164 107.86 142.146 107.87 142.131 107.883V107.891C142.106 107.927 142.084 107.945 142.084 107.981V117.277C142.084 117.344 142.15 117.418 142.249 117.418" fill="#6C888C"/>
<path d="M160.27 101.779H171.061C171.143 101.779 171.231 101.708 171.231 101.635V95.7285V92.3387C171.233 92.3212 171.229 92.3036 171.221 92.2871C171.213 92.2706 171.2 92.2556 171.185 92.2429C171.169 92.2301 171.149 92.22 171.128 92.2131C171.107 92.2062 171.084 92.2026 171.061 92.2026H160.27C160.27 92.2026 160.176 92.2194 160.146 92.2466V92.255C160.124 92.2885 160.102 92.3115 160.102 92.3408V101.639C160.108 101.708 160.176 101.779 160.27 101.779Z" fill="#6C888C"/>
<path d="M160.27 117.418H171.061C171.143 117.418 171.231 117.344 171.231 117.275V111.367V107.977C171.232 107.959 171.228 107.942 171.22 107.926C171.212 107.91 171.199 107.895 171.183 107.882C171.168 107.87 171.149 107.86 171.127 107.853C171.106 107.846 171.084 107.843 171.061 107.843H160.27C160.27 107.843 160.176 107.86 160.146 107.883V107.891C160.124 107.927 160.102 107.945 160.102 107.981V117.277C160.108 117.344 160.176 117.418 160.27 117.418" fill="#6C888C"/>
<path d="M45.0478 18.718V132.199C45.0478 133.144 45.7435 133.916 46.5658 133.916H144.573C145.398 133.916 146.094 133.144 146.094 132.199V62.8333V18.718C146.115 18.3043 145.974 17.8951 145.687 17.5434L145.643 17.5099C145.643 17.4806 145.618 17.4764 145.588 17.4617C145.486 17.324 145.339 17.2088 145.161 17.1277C144.983 17.0465 144.78 17.0022 144.573 16.999H46.5685C45.7435 16.999 45.0478 17.7821 45.0478 18.718Z" fill="#6967C9"/>
<path d="M81.9665 133.977H109.758C109.97 133.977 110.171 133.868 110.171 133.732V124.076V118.536C110.171 118.406 109.97 118.31 109.758 118.31H81.9665C81.864 118.309 81.7635 118.332 81.6778 118.374L81.6723 118.383H81.6613C81.6063 118.431 81.5458 118.481 81.5458 118.536V133.734C81.5458 133.87 81.7493 133.977 81.9665 133.977" fill="#405967"/>
<path d="M85.4425 126.442H90.2688C90.2688 126.442 90.3375 126.406 90.3375 126.377V123.734V122.218C90.3375 122.174 90.3018 122.156 90.3018 122.156H85.437L85.3793 122.172V122.181L85.3628 122.206V126.381C85.3683 126.408 85.4013 126.442 85.4425 126.442" fill="#86A7AC"/>
<path d="M51.6313 78.4593H140.668C141.378 78.4593 142.084 78.3608 142.084 78.275V70.8904V66.6464C142.084 66.55 141.378 66.4684 140.668 66.4684H51.6285C51.2765 66.4684 50.853 66.4935 50.6385 66.5249V66.5333C50.468 66.5773 50.2865 66.6066 50.2865 66.6464V78.275C50.2865 78.3588 50.8557 78.4572 51.6313 78.4572" fill="#86A7AC"/>
<path d="M51.5708 98.0314H136.917C137.605 98.0314 138.278 97.9309 138.278 97.8451V90.4625V86.2164C138.278 86.1222 137.605 86.0405 136.917 86.0405H51.579C51.2353 86.0405 50.831 86.0426 50.6248 86.095V86.1117C50.4515 86.1473 50.2865 86.1766 50.2865 86.2164V97.8555C50.2865 97.9393 50.8282 98.0398 51.5762 98.0398" fill="#86A7AC"/>
<path d="M73.0318 78.4927H86.5398C86.647 78.4927 86.7543 78.3922 86.7543 78.3021V70.9217V66.6755C86.7543 66.5792 86.647 66.4976 86.5398 66.4976H73.0235C72.9937 66.4984 72.9645 66.5038 72.9375 66.5136C72.9106 66.5233 72.8865 66.5371 72.8668 66.5541V66.5625C72.8668 66.6043 72.8118 66.6357 72.8118 66.6755V78.3042C72.8118 78.3922 72.9025 78.4927 73.0208 78.4927" fill="#86A7AC"/>
<path d="M73.0318 98.0673H86.5398C86.647 98.0673 86.7543 97.9668 86.7543 97.8768V90.4984V86.2523C86.7543 86.156 86.647 86.0743 86.5398 86.0743H73.0235C72.9937 86.0752 72.9645 86.0806 72.9375 86.0903C72.9106 86.1001 72.8865 86.1139 72.8668 86.1309V86.1476C72.8668 86.1832 72.8118 86.2125 72.8118 86.2544V97.8894C72.8118 97.9731 72.9025 98.0736 73.0208 98.0736" fill="#86A7AC"/>
<path d="M126.968 78.4927H140.484C140.594 78.4927 140.701 78.3922 140.701 78.3021V70.9217V66.6755C140.701 66.5792 140.594 66.4976 140.484 66.4976H126.99C126.961 66.4986 126.932 66.5042 126.906 66.5139C126.88 66.5236 126.857 66.5373 126.838 66.5541V66.5625C126.836 66.6043 126.781 66.6357 126.781 66.6755V78.3042C126.781 78.3922 126.871 78.4927 126.99 78.4927" fill="#86A7AC"/>
<path d="M126.968 98.0673H140.484C140.594 98.0673 140.701 97.9668 140.701 97.8768V90.4984V86.2523C140.701 86.156 140.594 86.0743 140.484 86.0743H126.99C126.961 86.0754 126.932 86.0809 126.906 86.0907C126.88 86.1004 126.857 86.1141 126.838 86.1309V86.1476C126.838 86.1476 126.781 86.2125 126.781 86.2544V97.8894C126.781 97.9731 126.871 98.0736 126.99 98.0736" fill="#86A7AC"/>
<path d="M104.61 78.4927H118.11C118.217 78.4927 118.319 78.3922 118.319 78.3021V70.9217V66.6755C118.319 66.5792 118.217 66.4976 118.11 66.4976H104.621C104.559 66.4999 104.5 66.5201 104.456 66.5541V66.5625C104.434 66.6043 104.398 66.6357 104.398 66.6755V78.3042C104.398 78.3922 104.497 78.4927 104.621 78.4927" fill="#86A7AC"/>
<path d="M104.61 98.0673H118.11C118.217 98.0673 118.319 97.9668 118.319 97.8768V90.4984V86.2523C118.319 86.156 118.217 86.0743 118.11 86.0743H104.621C104.559 86.0767 104.5 86.0968 104.456 86.1309V86.1476C104.456 86.1476 104.398 86.2125 104.398 86.2544V97.8894C104.398 97.9731 104.497 98.0736 104.621 98.0736" fill="#86A7AC"/>
<path d="M101.255 126.442H106.087C106.087 126.442 106.158 126.406 106.158 126.377V123.734V122.218C106.158 122.174 106.12 122.156 106.12 122.156H101.252L101.2 122.172V122.181C101.189 122.189 101.178 122.206 101.178 122.206V126.381C101.184 126.408 101.219 126.442 101.255 126.442" fill="#86A7AC"/>
<path d="M73.326 48.7026H118.385C118.742 48.7026 119.081 48.6545 119.081 48.5875V43.6504V40.8217C119.081 40.7568 118.742 40.7087 118.385 40.7087H73.3288C73.1775 40.7052 73.0261 40.7151 72.8778 40.738L72.8613 40.7422H72.8448C72.7375 40.761 72.6523 40.7945 72.6523 40.7945V48.5896C72.6523 48.6524 72.9713 48.7026 73.3315 48.7026" fill="#DE374B"/>
<path d="M90.5988 40.9979V60.9325C90.5988 61.0875 90.6648 61.234 90.7555 61.234H100.961C101.046 61.234 101.12 61.0875 101.12 60.9325V48.7469V40.9979C101.126 40.93 101.108 40.8621 101.068 40.8011V40.7969V40.7802C101.021 40.7404 100.991 40.7069 100.991 40.7069H90.75C90.6703 40.7069 90.5988 40.8388 90.5988 40.9979Z" fill="#DE374B"/>
<path d="M90.5988 28.4688V48.3992C90.5988 48.5541 90.6648 48.7007 90.7555 48.7007H100.961C101.046 48.7007 101.12 48.5541 101.12 48.3992V36.2178V28.4688C101.125 28.3995 101.107 28.3305 101.068 28.2678V28.2531C101.04 28.2285 101.015 28.2026 100.991 28.1757H90.75C90.6703 28.1757 90.5988 28.3055 90.5988 28.4688" fill="#DE374B"/>
</g>
<defs>
<clipPath id="clip0">
<rect width="176" height="134" fill="white"/>
</clipPath>
</defs>
</svg>
