<svg width="65" height="65" viewBox="0 0 65 65" fill="none" xmlns="http://www.w3.org/2000/svg">
<path d="M59.0566 27.1958H56.875V27.0834H32.5V37.9167H47.8062C45.5731 44.223 39.5728 48.75 32.5 48.75C23.526 48.75 16.25 41.4741 16.25 32.5C16.25 23.526 23.526 16.25 32.5 16.25C36.6424 16.25 40.4111 17.8127 43.2805 20.3653L50.9411 12.7048C46.104 8.19679 39.6338 5.41669 32.5 5.41669C17.5433 5.41669 5.41669 17.5433 5.41669 32.5C5.41669 47.4568 17.5433 59.5834 32.5 59.5834C47.4568 59.5834 59.5834 47.4568 59.5834 32.5C59.5834 30.6841 59.3965 28.9115 59.0566 27.1958Z" fill="#FFC107"/>
<path d="M8.53937 19.8941L17.4376 26.4198C19.8453 20.4588 25.6763 16.25 32.5 16.25C36.6424 16.25 40.411 17.8127 43.2805 20.3653L50.941 12.7048C46.1039 8.19679 39.6337 5.41669 32.5 5.41669C22.0973 5.41669 13.0758 11.2897 8.53937 19.8941Z" fill="#FF3D00"/>
<path d="M32.5 59.5834C39.4956 59.5834 45.8521 56.9062 50.658 52.5525L42.2757 45.4594C39.4652 47.5968 36.0309 48.7528 32.5 48.75C25.4556 48.75 19.4742 44.2582 17.2209 37.9898L8.38904 44.7945C12.8713 53.5654 21.974 59.5834 32.5 59.5834Z" fill="#4CAF50"/>
<path d="M59.0566 27.1957H56.875V27.0833H32.5V37.9166H47.8061C46.738 40.918 44.8139 43.5407 42.2717 45.4607L42.2757 45.458L50.658 52.5511C50.0649 53.0901 59.5833 46.0416 59.5833 32.5C59.5833 30.684 59.3965 28.9114 59.0566 27.1957Z" fill="#1976D2"/>
</svg>
