<svg width="15" height="16" viewBox="0 0 15 16" fill="none" xmlns="http://www.w3.org/2000/svg">
<path fill-rule="evenodd" clip-rule="evenodd" d="M1.061 2.917H2.083V4.132H1.061V11.967H2.049V13.084H1.061V15.881H12.958V0H1.061V2.917ZM4.445 4.392C4.475 4.368 4.716 4.188 4.802 4.123L4.796 4.121L4.813 4.114C4.818 4.108 4.834 4.097 4.837 4.094L4.841 4.099C4.987 4.013 5.138 3.953 5.31 3.927C5.772 3.859 6.109 4.339 6.328 4.614C6.547 4.886 6.851 5.32 6.814 5.617C6.792 5.796 6.587 5.961 6.393 6.123L6.386 6.113C6.333 6.17 6.099 6.409 6.079 6.441C5.972 6.619 5.849 7.022 6.021 7.326C6.184 7.621 6.506 8.099 6.811 8.498C7.133 8.885 7.528 9.308 7.778 9.535C8.04 9.772 8.471 9.755 8.673 9.697C8.712 9.687 9.027 9.5 9.068 9.48C9.277 9.336 9.488 9.184 9.675 9.207C9.978 9.245 10.331 9.641 10.55 9.914C10.769 10.188 11.163 10.626 10.983 11.046C10.9139 11.1995 10.8142 11.3373 10.69 11.451L10.694 11.455L10.672 11.471L10.666 11.479L10.662 11.48L10.308 11.749C9.972 11.966 9.242 12.237 8.216 11.634C7.455 11.185 6.62 10.423 5.823 9.471L5.819 9.474C5.7827 9.42748 5.74703 9.38048 5.712 9.333C5.675 9.287 5.636 9.244 5.598 9.196L5.602 9.193C4.854 8.206 4.304 7.228 4.046 6.397C3.699 5.277 4.148 4.656 4.445 4.392V4.392Z" fill="#7B72B3"/>
<path fill-rule="evenodd" clip-rule="evenodd" d="M0 3H0.979V3.992H0V3Z" fill="#7B72B3"/>
<path fill-rule="evenodd" clip-rule="evenodd" d="M0 12H0.977V12.943H0V12Z" fill="#7B72B3"/>
<path fill-rule="evenodd" clip-rule="evenodd" d="M14 2H14.916V4.875H14V2Z" fill="#7B72B3"/>
<path fill-rule="evenodd" clip-rule="evenodd" d="M14 11H14.887V13.847H14V11Z" fill="#7B72B3"/>
<path fill-rule="evenodd" clip-rule="evenodd" d="M14 6H14.901V9.895H14V6Z" fill="#7B72B3"/>
</svg>
