<svg width="82" height="68" viewBox="0 0 82 68" fill="none" xmlns="http://www.w3.org/2000/svg">
<path d="M36.5412 25.3215V29.223H33.0973V33.9915H36.5412V48.1667H43.6206V33.9915H48.3697C48.3697 33.9915 48.8173 31.705 49.0326 29.2032H43.6479V25.9448C43.6479 25.4547 44.4201 24.8002 45.1854 24.8002H49.0394V19.8333H43.7948C36.367 19.8333 36.5412 24.6075 36.5412 25.3215Z" fill="black"/>
<path d="M20.5 11.3333C18.6877 11.3333 16.9496 11.9304 15.6681 12.9931C14.3866 14.0558 13.6667 15.4971 13.6667 17V51C13.6667 52.5029 14.3866 53.9442 15.6681 55.0069C16.9496 56.0697 18.6877 56.6667 20.5 56.6667H61.5C63.3123 56.6667 65.0504 56.0697 66.3319 55.0069C67.6134 53.9442 68.3333 52.5029 68.3333 51V17C68.3333 15.4971 67.6134 14.0558 66.3319 12.9931C65.0504 11.9304 63.3123 11.3333 61.5 11.3333H20.5ZM20.5 5.66667H61.5C65.1246 5.66667 68.6008 6.86072 71.1638 8.98613C73.7268 11.1115 75.1667 13.9942 75.1667 17V51C75.1667 54.0058 73.7268 56.8885 71.1638 59.0139C68.6008 61.1393 65.1246 62.3333 61.5 62.3333H20.5C16.8754 62.3333 13.3992 61.1393 10.8362 59.0139C8.27321 56.8885 6.83333 54.0058 6.83333 51V17C6.83333 13.9942 8.27321 11.1115 10.8362 8.98613C13.3992 6.86072 16.8754 5.66667 20.5 5.66667V5.66667Z" fill="black"/>
</svg>
