<svg width="35" height="29" viewBox="0 0 35 29" fill="none" xmlns="http://www.w3.org/2000/svg">
<path d="M7.95457 28.8573V13.9952L3.76072 9.77846L0 7.43848V26.2345C0 27.6857 1.06982 28.8573 2.38643 28.8573H7.95457V28.8573Z" fill="#1D6BEB"/>
<path d="M27.0454 28.8573H32.6136C33.9341 28.8573 35 27.6814 35 26.2345V7.4386L30.7404 10.1188L27.0454 13.9952V28.8573V28.8573Z" fill="#34A853"/>
<path d="M7.95458 13.9951L7.38391 8.18806L7.95458 2.63013L17.5 10.4983L27.0454 2.63013L27.6839 7.88799L27.0454 13.9951L17.5 21.8633L7.95458 13.9951Z" fill="#EA4335"/>
<path d="M27.0454 2.63021V13.9952L35 7.4385V3.94152C35 0.698179 31.6312 -1.15076 29.2728 0.794345L27.0454 2.63021Z" fill="#FBBC04"/>
<path d="M0 7.43833L3.65846 10.454L7.95457 13.995V2.63003L5.72715 0.79417C3.36465 -1.15108 0 0.698004 0 3.9412V7.43817V7.43833Z" fill="#C5221F"/>
</svg>
