<svg width="256" height="256" viewBox="0 0 256 256" fill="none" xmlns="http://www.w3.org/2000/svg">
<path d="M94 112.001V176.001C94 177.592 93.3679 179.118 92.2426 180.244C91.1174 181.369 89.5913 182.001 88 182.001C86.4087 182.001 84.8826 181.369 83.7574 180.244C82.6321 179.118 82 177.592 82 176.001V112.001C82 110.41 82.6321 108.884 83.7574 107.758C84.8826 106.633 86.4087 106.001 88 106.001C89.5913 106.001 91.1174 106.633 92.2426 107.758C93.3679 108.884 94 110.41 94 112.001ZM88 70C86.0222 70 84.0888 70.5865 82.4443 71.6853C80.7998 72.7841 79.5181 74.3459 78.7612 76.1732C78.0043 78.0004 77.8063 80.0111 78.1921 81.9509C78.578 83.8907 79.5304 85.6725 80.9289 87.0711C82.3275 88.4696 84.1093 89.422 86.0491 89.8079C87.9889 90.1937 89.9996 89.9957 91.8268 89.2388C93.6541 88.4819 95.2159 87.2002 96.3147 85.5557C97.4135 83.9112 98 81.9778 98 80C98 77.3478 96.9464 74.8043 95.0711 72.9289C93.1957 71.0536 90.6522 70 88 70ZM226 44V212C225.996 215.712 224.519 219.27 221.895 221.895C219.27 224.519 215.712 225.996 212 226H44C40.2883 225.996 36.7298 224.519 34.1052 221.895C31.4806 219.27 30.0042 215.712 30 212V44C30.0042 40.2883 31.4806 36.7298 34.1052 34.1052C36.7298 31.4806 40.2883 30.0042 44 30H212C215.712 30.0042 219.27 31.4806 221.895 34.1052C224.519 36.7298 225.996 40.2883 226 44V44ZM214 44C213.999 43.4697 213.789 42.9613 213.414 42.5864C213.039 42.2114 212.53 42.0005 212 42H44C43.4697 42.0005 42.9613 42.2114 42.5864 42.5864C42.2114 42.9613 42.0005 43.4697 42 44V212C42.0005 212.53 42.2114 213.039 42.5864 213.414C42.9613 213.789 43.4697 213.999 44 214H212C212.53 213.999 213.039 213.789 213.414 213.414C213.789 213.039 213.999 212.53 214 212V44ZM148 106.001C139.935 105.996 132.133 108.871 126 114.108V112.001C126 110.41 125.368 108.884 124.243 107.758C123.117 106.633 121.591 106.001 120 106.001C118.409 106.001 116.883 106.633 115.757 107.758C114.632 108.884 114 110.41 114 112.001V176.001C114 177.592 114.632 179.118 115.757 180.244C116.883 181.369 118.409 182.001 120 182.001C121.591 182.001 123.117 181.369 124.243 180.244C125.368 179.118 126 177.592 126 176.001V140.001C126 134.166 128.318 128.57 132.444 124.445C136.569 120.319 142.165 118.001 148 118.001C153.835 118.001 159.431 120.319 163.556 124.445C167.682 128.57 170 134.166 170 140.001V176.001C170 177.592 170.632 179.118 171.757 180.244C172.883 181.369 174.409 182.001 176 182.001C177.591 182.001 179.117 181.369 180.243 180.244C181.368 179.118 182 177.592 182 176.001V140.001C181.99 130.987 178.404 122.345 172.03 115.971C165.656 109.597 157.014 106.011 148 106.001V106.001Z" fill="black"/>
</svg>
