<svg width="512" height="512" viewBox="0 0 512 512" fill="none" xmlns="http://www.w3.org/2000/svg">
<path d="M448 362.7L330.7 341.4C320 320 320 310.7 320 298.7C330.7 288 352 277.4 352 266.7C362.7 234.7 362.7 213.4 362.7 213.4C368.2 205.4 384 192.1 384 170.7C384 149.3 362.7 128 362.7 117.4C362.7 32 319.2 0 256 0C195.5 0 149.3 32 149.3 117.3C149.3 128 128 149.3 128 170.6C128 191.9 143.2 206 149.3 213.3C149.3 213.3 149.3 234.6 160 266.6C160 277.3 181.3 287.9 192 298.6C192 309.3 192 319.9 181.3 341.3L64 362.7C21.3 373.3 0 448 0 512H512C512 448 490.7 373.3 448 362.7Z" fill="black"/>
</svg>
