<svg width="199" height="157" viewBox="0 0 199 157" fill="none" xmlns="http://www.w3.org/2000/svg">
<path d="M194.122 77.2217L104.422 2.05646C103.776 1.5138 103.009 1.08327 102.164 0.789522C101.32 0.495775 100.414 0.344574 99.4999 0.344574C98.5856 0.344574 97.6803 0.495775 96.8358 0.789522C95.9912 1.08327 95.2241 1.5138 94.5782 2.05646L4.87734 77.2217C2.26406 79.4131 0.783203 82.3898 0.783203 85.4943C0.783203 91.9406 7.0333 97.1818 14.7207 97.1818H24.1721V150.816C24.1721 154.049 27.2862 156.66 31.1408 156.66H85.5624V115.754H109.953V156.66H167.859C171.714 156.66 174.828 154.049 174.828 150.816V97.1818H184.279C187.981 97.1818 191.531 95.9582 194.144 93.7486C199.567 89.1831 199.567 81.7871 194.122 77.2217V77.2217Z" fill="#C1C3E1"/>
</svg>
